<svg width="185" height="56" viewBox="0 0 185 56" fill="none" xmlns="http://www.w3.org/2000/svg">
<path d="M145.37 51.0638C144.718 52.7856 142.282 52.7856 141.63 51.0638L135.433 34.7086C134.937 33.4001 135.904 32 137.303 32L149.697 32C151.096 32 152.063 33.4001 151.567 34.7086L145.37 51.0638Z" fill="black"/>
<rect width="185" height="40" rx="8" fill="black"/>
<path d="M11.008 20.784C11.008 19.9307 11.1253 19.168 11.36 18.496C11.6053 17.824 11.936 17.2533 12.352 16.784C12.7787 16.3147 13.28 15.9573 13.856 15.712C14.4427 15.456 15.0827 15.328 15.776 15.328C16.416 15.328 16.9813 15.4613 17.472 15.728C17.9733 15.984 18.3787 16.2827 18.688 16.624L17.792 17.632C17.5253 17.3547 17.2267 17.136 16.896 16.976C16.576 16.8053 16.2027 16.72 15.776 16.72C15.3067 16.72 14.88 16.816 14.496 17.008C14.112 17.1893 13.7813 17.456 13.504 17.808C13.2373 18.1493 13.0293 18.5707 12.88 19.072C12.7307 19.5627 12.656 20.1173 12.656 20.736C12.656 21.3653 12.7307 21.9307 12.88 22.432C13.0293 22.9333 13.2427 23.36 13.52 23.712C13.7973 24.064 14.128 24.336 14.512 24.528C14.896 24.7093 15.328 24.8 15.808 24.8C16.256 24.8 16.656 24.704 17.008 24.512C17.3707 24.32 17.712 24.048 18.032 23.696L18.928 24.672C18.5013 25.1627 18.0267 25.5413 17.504 25.808C16.9813 26.064 16.384 26.192 15.712 26.192C15.0507 26.192 14.432 26.0747 13.856 25.84C13.28 25.5947 12.7787 25.2427 12.352 24.784C11.936 24.3147 11.6053 23.7493 11.36 23.088C11.1253 22.416 11.008 21.648 11.008 20.784ZM20.8097 22.096C20.8097 21.4453 20.9164 20.864 21.1297 20.352C21.3431 19.84 21.6311 19.408 21.9937 19.056C22.3564 18.704 22.7724 18.4373 23.2417 18.256C23.7111 18.0747 24.2017 17.984 24.7137 17.984C25.2257 17.984 25.7164 18.0747 26.1858 18.256C26.6551 18.4373 27.0711 18.704 27.4338 19.056C27.7964 19.408 28.0844 19.84 28.2978 20.352C28.5111 20.864 28.6178 21.4453 28.6178 22.096C28.6178 22.7467 28.5111 23.328 28.2978 23.84C28.0844 24.3413 27.7964 24.768 27.4338 25.12C27.0711 25.472 26.6551 25.7387 26.1858 25.92C25.7164 26.1013 25.2257 26.192 24.7137 26.192C24.2017 26.192 23.7111 26.1013 23.2417 25.92C22.7724 25.7387 22.3564 25.472 21.9937 25.12C21.6311 24.768 21.3431 24.3413 21.1297 23.84C20.9164 23.328 20.8097 22.7467 20.8097 22.096ZM22.4417 22.096C22.4417 22.9387 22.6444 23.616 23.0497 24.128C23.4551 24.64 24.0097 24.896 24.7137 24.896C25.4178 24.896 25.9724 24.64 26.3777 24.128C26.7831 23.616 26.9858 22.9387 26.9858 22.096C26.9858 21.2533 26.7831 20.576 26.3777 20.064C25.9724 19.552 25.4178 19.296 24.7137 19.296C24.0097 19.296 23.4551 19.552 23.0497 20.064C22.6444 20.576 22.4417 21.2533 22.4417 22.096ZM32.8195 26.64V29.2H31.2355V18.176H32.5315L32.6595 19.136H32.7075C33.0595 18.7947 33.4648 18.5173 33.9235 18.304C34.3822 18.0907 34.8462 17.984 35.3155 17.984C35.8275 17.984 36.2808 18.08 36.6755 18.272C37.0808 18.4533 37.4168 18.72 37.6835 19.072C37.9608 19.4133 38.1688 19.8293 38.3075 20.32C38.4568 20.8107 38.5315 21.36 38.5315 21.968C38.5315 22.64 38.4355 23.2373 38.2435 23.76C38.0515 24.2827 37.7902 24.7253 37.4595 25.088C37.1395 25.44 36.7662 25.712 36.3395 25.904C35.9128 26.096 35.4702 26.192 35.0115 26.192C34.6488 26.192 34.2702 26.112 33.8755 25.952C33.4808 25.7813 33.1128 25.5413 32.7715 25.232L32.8195 26.64ZM32.8195 24.064C33.1502 24.3627 33.4862 24.576 33.8275 24.704C34.1688 24.8213 34.4622 24.88 34.7075 24.88C35.3368 24.88 35.8595 24.6347 36.2755 24.144C36.6915 23.6427 36.8995 22.9227 36.8995 21.984C36.8995 21.1627 36.7395 20.512 36.4195 20.032C36.0995 19.552 35.5875 19.312 34.8835 19.312C34.5635 19.312 34.2275 19.3973 33.8755 19.568C33.5235 19.728 33.1715 19.9947 32.8195 20.368V24.064ZM41.1332 27.888C41.2292 27.92 41.3359 27.9467 41.4532 27.968C41.5706 27.9893 41.6879 28 41.8052 28C42.3279 28 42.7492 27.856 43.0692 27.568C43.3892 27.2907 43.6399 26.9333 43.8212 26.496L44.0292 25.952L40.4612 18.176H42.0452L43.8052 22.256C43.9546 22.608 44.1039 22.9813 44.2532 23.376C44.4026 23.7707 44.5572 24.16 44.7172 24.544H44.7812C44.9092 24.1707 45.0426 23.7867 45.1812 23.392C45.3199 22.9973 45.4532 22.6187 45.5812 22.256L47.1332 18.176H48.6372L45.2932 26.496C45.1332 26.912 44.9519 27.2907 44.7492 27.632C44.5466 27.9733 44.3066 28.2667 44.0292 28.512C43.7626 28.7573 43.4532 28.944 43.1012 29.072C42.7492 29.2107 42.3439 29.28 41.8852 29.28C41.6932 29.28 41.5012 29.264 41.3092 29.232C41.1279 29.2107 40.9626 29.1733 40.8132 29.12L41.1332 27.888ZM61.5047 23.552C61.9101 23.9253 62.3634 24.2293 62.8647 24.464C63.3767 24.688 63.9047 24.8 64.4487 24.8C65.1421 24.8 65.6701 24.6613 66.0327 24.384C66.4061 24.1067 66.5927 23.7333 66.5927 23.264C66.5927 23.0293 66.5447 22.8267 66.4487 22.656C66.3634 22.4853 66.2407 22.3413 66.0807 22.224C65.9207 22.096 65.7287 21.984 65.5047 21.888C65.2807 21.792 65.0354 21.6907 64.7687 21.584L63.2967 20.928C63.0301 20.8213 62.7634 20.6933 62.4967 20.544C62.2301 20.384 61.9901 20.1973 61.7767 19.984C61.5634 19.76 61.3874 19.504 61.2487 19.216C61.1207 18.9173 61.0567 18.576 61.0567 18.192C61.0567 17.7867 61.1421 17.408 61.3127 17.056C61.4834 16.704 61.7234 16.4 62.0327 16.144C62.3527 15.888 62.7261 15.6907 63.1527 15.552C63.5901 15.4027 64.0701 15.328 64.5927 15.328C65.2434 15.328 65.8514 15.4453 66.4167 15.68C66.9821 15.9147 67.4674 16.2347 67.8727 16.64L67.0407 17.664C66.6994 17.3653 66.3314 17.136 65.9367 16.976C65.5421 16.8053 65.0941 16.72 64.5927 16.72C63.9954 16.72 63.5261 16.8427 63.1847 17.088C62.8434 17.3333 62.6727 17.6693 62.6727 18.096C62.6727 18.3307 62.7207 18.528 62.8167 18.688C62.9234 18.848 63.0621 18.992 63.2327 19.12C63.4034 19.2373 63.5954 19.344 63.8087 19.44C64.0327 19.5253 64.2621 19.616 64.4967 19.712L65.9207 20.336C66.2514 20.464 66.5554 20.6133 66.8327 20.784C67.1101 20.944 67.3501 21.136 67.5527 21.36C67.7661 21.5733 67.9314 21.8293 68.0487 22.128C68.1661 22.416 68.2247 22.752 68.2247 23.136C68.2247 23.552 68.1394 23.9467 67.9687 24.32C67.7981 24.6933 67.5474 25.0187 67.2167 25.296C66.8861 25.5733 66.4861 25.792 66.0167 25.952C65.5474 26.112 65.0141 26.192 64.4167 26.192C63.6594 26.192 62.9554 26.0587 62.3047 25.792C61.6541 25.5147 61.0781 25.1307 60.5767 24.64L61.5047 23.552ZM77.6425 26H76.3465L76.2185 24.704H76.1545C75.7705 25.152 75.3492 25.5147 74.8905 25.792C74.4425 26.0587 73.9198 26.192 73.3225 26.192C72.3945 26.192 71.7172 25.9253 71.2905 25.392C70.8638 24.848 70.6505 24.0587 70.6505 23.024V18.176H72.2345V22.816C72.2345 23.5093 72.3572 24.0213 72.6025 24.352C72.8478 24.672 73.2692 24.832 73.8665 24.832C74.2718 24.832 74.6398 24.736 74.9705 24.544C75.3118 24.3413 75.6745 24.0053 76.0585 23.536V18.176H77.6425V26ZM80.6122 22.096C80.6122 21.4453 80.7296 20.864 80.9642 20.352C81.1989 19.84 81.5189 19.408 81.9242 19.056C82.3296 18.704 82.7936 18.4373 83.3162 18.256C83.8496 18.0747 84.4149 17.984 85.0122 17.984C85.6522 17.984 86.2122 18.096 86.6922 18.32C87.1722 18.5333 87.5722 18.7947 87.8922 19.104L87.1242 20.112C86.8149 19.856 86.4949 19.6587 86.1642 19.52C85.8336 19.3707 85.4762 19.296 85.0922 19.296C84.6762 19.296 84.2922 19.3653 83.9402 19.504C83.5882 19.632 83.2842 19.8187 83.0282 20.064C82.7829 20.3093 82.5909 20.608 82.4522 20.96C82.3136 21.3013 82.2442 21.68 82.2442 22.096C82.2442 22.512 82.3082 22.896 82.4362 23.248C82.5749 23.5893 82.7669 23.8827 83.0122 24.128C83.2682 24.3733 83.5669 24.5653 83.9082 24.704C84.2496 24.832 84.6282 24.896 85.0442 24.896C85.5242 24.896 85.9562 24.8053 86.3402 24.624C86.7242 24.4427 87.0709 24.224 87.3802 23.968L88.0522 24.992C87.6042 25.376 87.1136 25.6747 86.5802 25.888C86.0469 26.0907 85.4922 26.192 84.9162 26.192C84.3082 26.192 83.7376 26.1013 83.2042 25.92C82.6816 25.7387 82.2282 25.472 81.8442 25.12C81.4602 24.768 81.1562 24.3413 80.9322 23.84C80.7189 23.328 80.6122 22.7467 80.6122 22.096ZM90.526 22.096C90.526 21.4453 90.6433 20.864 90.878 20.352C91.1127 19.84 91.4327 19.408 91.838 19.056C92.2433 18.704 92.7073 18.4373 93.23 18.256C93.7633 18.0747 94.3287 17.984 94.926 17.984C95.566 17.984 96.126 18.096 96.606 18.32C97.086 18.5333 97.486 18.7947 97.806 19.104L97.038 20.112C96.7287 19.856 96.4087 19.6587 96.078 19.52C95.7473 19.3707 95.39 19.296 95.006 19.296C94.59 19.296 94.206 19.3653 93.854 19.504C93.502 19.632 93.198 19.8187 92.942 20.064C92.6967 20.3093 92.5047 20.608 92.366 20.96C92.2273 21.3013 92.158 21.68 92.158 22.096C92.158 22.512 92.222 22.896 92.35 23.248C92.4887 23.5893 92.6807 23.8827 92.926 24.128C93.182 24.3733 93.4807 24.5653 93.822 24.704C94.1633 24.832 94.542 24.896 94.958 24.896C95.438 24.896 95.87 24.8053 96.254 24.624C96.638 24.4427 96.9847 24.224 97.294 23.968L97.966 24.992C97.518 25.376 97.0273 25.6747 96.494 25.888C95.9607 26.0907 95.406 26.192 94.83 26.192C94.222 26.192 93.6513 26.1013 93.118 25.92C92.5953 25.7387 92.142 25.472 91.758 25.12C91.374 24.768 91.07 24.3413 90.846 23.84C90.6327 23.328 90.526 22.7467 90.526 22.096ZM100.264 22.096C100.264 21.456 100.376 20.8853 100.6 20.384C100.824 19.872 101.122 19.44 101.496 19.088C101.869 18.7253 102.296 18.4533 102.776 18.272C103.256 18.08 103.752 17.984 104.264 17.984C104.84 17.984 105.346 18.0747 105.784 18.256C106.232 18.4373 106.61 18.6933 106.92 19.024C107.229 19.344 107.464 19.7333 107.624 20.192C107.784 20.64 107.864 21.136 107.864 21.68C107.864 21.84 107.853 21.9947 107.832 22.144C107.821 22.2827 107.805 22.4 107.784 22.496H101.896C101.949 23.264 102.232 23.8667 102.744 24.304C103.266 24.7307 103.922 24.944 104.712 24.944C105.138 24.944 105.533 24.8853 105.896 24.768C106.269 24.6507 106.632 24.4853 106.984 24.272L107.544 25.28C107.138 25.536 106.68 25.7547 106.168 25.936C105.666 26.1067 105.112 26.192 104.504 26.192C103.917 26.192 103.362 26.1013 102.84 25.92C102.328 25.728 101.88 25.456 101.496 25.104C101.112 24.752 100.808 24.3253 100.584 23.824C100.37 23.312 100.264 22.736 100.264 22.096ZM106.392 21.408C106.392 20.704 106.21 20.1653 105.848 19.792C105.485 19.4187 104.968 19.232 104.296 19.232C103.709 19.232 103.186 19.4187 102.728 19.792C102.269 20.1653 101.986 20.704 101.88 21.408H106.392ZM110.961 23.952C111.409 24.2613 111.879 24.512 112.369 24.704C112.86 24.8853 113.431 24.976 114.081 24.976C114.753 24.976 115.244 24.8747 115.553 24.672C115.863 24.4693 116.017 24.2133 116.017 23.904C116.017 23.616 115.831 23.3653 115.457 23.152C115.084 22.9387 114.465 22.7253 113.601 22.512C113.217 22.416 112.844 22.2987 112.481 22.16C112.129 22.0213 111.82 21.8613 111.553 21.68C111.287 21.488 111.073 21.28 110.913 21.056C110.753 20.8213 110.673 20.56 110.673 20.272C110.673 19.9413 110.743 19.6373 110.881 19.36C111.031 19.0827 111.249 18.8427 111.537 18.64C111.825 18.4373 112.177 18.2773 112.593 18.16C113.009 18.0427 113.489 17.984 114.033 17.984C114.652 17.984 115.239 18.0907 115.793 18.304C116.359 18.5067 116.839 18.7413 117.233 19.008L116.497 20C116.145 19.7653 115.767 19.5733 115.361 19.424C114.956 19.2747 114.519 19.2 114.049 19.2C113.388 19.2 112.924 19.296 112.657 19.488C112.401 19.68 112.273 19.9147 112.273 20.192C112.273 20.4907 112.487 20.736 112.913 20.928C113.34 21.12 113.889 21.3013 114.561 21.472C115.543 21.7173 116.295 22.016 116.817 22.368C117.351 22.7093 117.617 23.1893 117.617 23.808C117.617 24.1387 117.537 24.448 117.377 24.736C117.217 25.024 116.983 25.28 116.673 25.504C116.375 25.7173 116.001 25.8827 115.553 26C115.116 26.128 114.609 26.192 114.033 26.192C113.287 26.192 112.583 26.0747 111.921 25.84C111.26 25.5947 110.689 25.3067 110.209 24.976L110.961 23.952ZM120.875 23.952C121.323 24.2613 121.793 24.512 122.283 24.704C122.774 24.8853 123.345 24.976 123.995 24.976C124.667 24.976 125.158 24.8747 125.467 24.672C125.777 24.4693 125.931 24.2133 125.931 23.904C125.931 23.616 125.745 23.3653 125.371 23.152C124.998 22.9387 124.379 22.7253 123.515 22.512C123.131 22.416 122.758 22.2987 122.395 22.16C122.043 22.0213 121.734 21.8613 121.467 21.68C121.201 21.488 120.987 21.28 120.827 21.056C120.667 20.8213 120.587 20.56 120.587 20.272C120.587 19.9413 120.657 19.6373 120.795 19.36C120.945 19.0827 121.163 18.8427 121.451 18.64C121.739 18.4373 122.091 18.2773 122.507 18.16C122.923 18.0427 123.403 17.984 123.947 17.984C124.566 17.984 125.153 18.0907 125.707 18.304C126.273 18.5067 126.753 18.7413 127.147 19.008L126.411 20C126.059 19.7653 125.681 19.5733 125.275 19.424C124.87 19.2747 124.433 19.2 123.963 19.2C123.302 19.2 122.838 19.296 122.571 19.488C122.315 19.68 122.187 19.9147 122.187 20.192C122.187 20.4907 122.401 20.736 122.827 20.928C123.254 21.12 123.803 21.3013 124.475 21.472C125.457 21.7173 126.209 22.016 126.731 22.368C127.265 22.7093 127.531 23.1893 127.531 23.808C127.531 24.1387 127.451 24.448 127.291 24.736C127.131 25.024 126.897 25.28 126.587 25.504C126.289 25.7173 125.915 25.8827 125.467 26C125.03 26.128 124.523 26.192 123.947 26.192C123.201 26.192 122.497 26.0747 121.835 25.84C121.174 25.5947 120.603 25.3067 120.123 24.976L120.875 23.952ZM137.893 16.08C137.594 15.952 137.306 15.8613 137.029 15.808C136.762 15.7547 136.464 15.728 136.133 15.728C135.482 15.728 135.013 15.8933 134.725 16.224C134.437 16.544 134.293 17.0027 134.293 17.6V18.176H137.413V19.456H134.293V26H132.725V19.456H130.533V18.256L132.725 18.176V17.632C132.725 17.1627 132.789 16.736 132.917 16.352C133.045 15.9573 133.242 15.6213 133.509 15.344C133.776 15.0667 134.112 14.8533 134.517 14.704C134.922 14.544 135.402 14.464 135.957 14.464C136.736 14.464 137.498 14.6133 138.245 14.912L137.893 16.08ZM147.039 26H145.743L145.615 24.704H145.551C145.167 25.152 144.745 25.5147 144.287 25.792C143.839 26.0587 143.316 26.192 142.719 26.192C141.791 26.192 141.113 25.9253 140.687 25.392C140.26 24.848 140.047 24.0587 140.047 23.024V18.176H141.631V22.816C141.631 23.5093 141.753 24.0213 141.999 24.352C142.244 24.672 142.665 24.832 143.263 24.832C143.668 24.832 144.036 24.736 144.367 24.544C144.708 24.3413 145.071 24.0053 145.455 23.536V18.176H147.039V26ZM150.008 14.656H154.152V23.36C154.152 23.904 154.286 24.2987 154.552 24.544C154.83 24.7787 155.187 24.896 155.624 24.896C155.838 24.896 156.056 24.8693 156.28 24.816C156.504 24.7627 156.755 24.6773 157.032 24.56L157.416 25.744C157.235 25.808 157.059 25.8667 156.888 25.92C156.728 25.9733 156.563 26.016 156.392 26.048C156.222 26.0907 156.04 26.1227 155.848 26.144C155.667 26.176 155.464 26.192 155.24 26.192C154.366 26.192 153.699 25.9413 153.24 25.44C152.792 24.9387 152.568 24.2133 152.568 23.264V15.92H150.008V14.656ZM166.05 22.032L165.682 16.144L165.634 14.032H167.778L167.73 16.144L167.362 22.032H166.05ZM166.706 26.112C166.365 26.112 166.077 26 165.842 25.776C165.618 25.552 165.506 25.2587 165.506 24.896C165.506 24.5333 165.624 24.24 165.858 24.016C166.093 23.792 166.376 23.68 166.706 23.68C167.037 23.68 167.32 23.792 167.554 24.016C167.789 24.24 167.906 24.5333 167.906 24.896C167.906 25.2587 167.789 25.552 167.554 25.776C167.32 26 167.037 26.112 166.706 26.112Z" fill="white"/>
</svg>
